<?xml version="1.0" encoding="iso-8859-1"?>
<!-- Generator: Adobe Illustrator 18.0.0, SVG Export Plug-In . SVG Version: 6.00 Build 0)  -->
<!DOCTYPE svg PUBLIC "-//W3C//DTD SVG 1.1//EN" "http://www.w3.org/Graphics/SVG/1.1/DTD/svg11.dtd">
<svg version="1.1" id="Capa_1" xmlns="http://www.w3.org/2000/svg" xmlns:xlink="http://www.w3.org/1999/xlink" x="0px" y="0px"
	 viewBox="0 0 337.987 337.987" style="enable-background:new 0 0 337.987 337.987;" xml:space="preserve">
<g>
	<path d="M18.828,102.79c0.696,0.334,1.431,0.491,2.155,0.491c1.865,0,3.655-1.048,4.513-2.842
		c2.547-5.321,5.427-10.562,8.56-15.576c1.463-2.342,0.751-5.427-1.591-6.89c-2.342-1.463-5.426-0.75-6.89,1.591
		c-3.33,5.33-6.392,10.9-9.099,16.557C15.285,98.612,16.338,101.598,18.828,102.79z"/>
	<path d="M168.993,0C119.797,0,73.136,21.385,40.976,58.671c-1.804,2.091-1.571,5.248,0.52,7.052
		c2.092,1.803,5.248,1.57,7.052-0.521C78.807,30.12,122.708,10,168.993,10c87.669,0,158.994,71.324,158.994,158.993
		c0,87.67-71.324,158.994-158.994,158.994c-16.039,0-31.866-2.38-47.04-7.072c-2.64-0.816-5.438,0.661-6.254,3.299
		c-0.816,2.639,0.661,5.439,3.299,6.254c16.132,4.989,32.953,7.52,49.995,7.52c93.184,0,168.994-75.811,168.994-168.994
		S262.177,0,168.993,0z"/>
	<path d="M99.332,311.955c-26.384-12.881-48.689-32.802-64.505-57.61C18.585,228.868,10,199.355,10,168.993
		c0-15.935,2.349-31.662,6.982-46.746c0.81-2.64-0.672-5.437-3.312-6.247c-2.641-0.813-5.438,0.672-6.248,3.312
		C2.497,135.347,0,152.063,0,168.993c0,32.269,9.127,63.642,26.395,90.727c16.807,26.362,40.511,47.532,68.551,61.222
		c0.706,0.345,1.453,0.508,2.19,0.508c1.851,0,3.63-1.032,4.497-2.808C102.844,316.16,101.814,313.167,99.332,311.955z"/>
	<path d="M232.365,183.104c2.761,0,5-2.238,5-5v-18.223c0-2.762-2.239-5-5-5h-50.094V79.139c0-2.762-2.239-5-5-5h-15.73
		c-2.761,0-5,2.238-5,5v76.546c-3.56,3.333-5.801,8.058-5.801,13.308c0,10.064,8.188,18.253,18.253,18.253
		c4.385,0,8.412-1.556,11.563-4.143H232.365z M227.365,173.104h-40.603c0.306-1.323,0.484-2.695,0.484-4.11
		c0-1.416-0.178-2.788-0.484-4.112h40.603V173.104z M166.542,84.139h5.73v66.913c-1.065-0.194-2.157-0.311-3.278-0.311
		c-0.833,0-1.648,0.076-2.452,0.185V84.139z M160.741,168.993c0-4.55,3.702-8.252,8.253-8.252c4.551,0,8.253,3.702,8.253,8.252
		c0,4.551-3.702,8.253-8.253,8.253C164.443,177.246,160.741,173.544,160.741,168.993z"/>
	<path d="M269.205,257.561c-2.54,2.872-5.236,5.668-8.011,8.309c-2,1.904-2.078,5.069-0.174,7.069
		c0.983,1.032,2.301,1.553,3.623,1.553c1.238,0,2.479-0.457,3.446-1.378c2.982-2.839,5.878-5.843,8.607-8.929
		c1.83-2.068,1.636-5.229-0.433-7.058C274.194,255.298,271.034,255.492,269.205,257.561z"/>
	<path d="M286.138,243.529c2.381,1.398,5.445,0.605,6.845-1.776c12.921-21.972,19.75-47.132,19.75-72.76
		c0-79.258-64.481-143.738-143.739-143.738c-79.257,0-143.738,64.48-143.738,143.738s64.481,143.739,143.738,143.739
		c29.25,0,57.4-8.734,81.406-25.259c2.275-1.565,2.85-4.679,1.284-6.953c-1.565-2.274-4.678-2.85-6.954-1.283
		c-22.33,15.37-48.519,23.495-75.736,23.495c-73.744,0-133.738-59.995-133.738-133.739c0-73.743,59.995-133.738,133.738-133.738
		c73.744,0,133.739,59.995,133.739,133.738c0,23.848-6.352,47.255-18.37,67.691C282.963,239.064,283.758,242.129,286.138,243.529z"
		/>
	<path d="M174.382,62.949V45.552c0-2.762-2.239-5-5-5c-2.761,0-5,2.238-5,5v17.397c0,2.762,2.239,5,5,5
		C172.143,67.949,174.382,65.711,174.382,62.949z"/>
	<path d="M297.435,169.382c0-2.762-2.239-5-5-5h-17.398c-2.761,0-5,2.238-5,5c0,2.762,2.239,5,5,5h17.398
		C295.197,174.382,297.435,172.144,297.435,169.382z"/>
	<path d="M163.606,275.037v17.398c0,2.762,2.239,5,5,5s5-2.238,5-5v-17.398c0-2.762-2.239-5-5-5S163.606,272.275,163.606,275.037z"
		/>
	<path d="M45.552,163.605c-2.761,0-5,2.238-5,5s2.239,5,5,5H62.95c2.761,0,5-2.238,5-5s-2.239-5-5-5H45.552z"/>
</g>
<g>
</g>
<g>
</g>
<g>
</g>
<g>
</g>
<g>
</g>
<g>
</g>
<g>
</g>
<g>
</g>
<g>
</g>
<g>
</g>
<g>
</g>
<g>
</g>
<g>
</g>
<g>
</g>
<g>
</g>
</svg>
