<?xml version="1.0" encoding="UTF-8" standalone="no"?>
<!-- Generator: Adobe Illustrator 18.0.0, SVG Export Plug-In . SVG Version: 6.00 Build 0)  -->

<svg
   xmlns:dc="http://purl.org/dc/elements/1.1/"
   xmlns:cc="http://creativecommons.org/ns#"
   xmlns:rdf="http://www.w3.org/1999/02/22-rdf-syntax-ns#"
   xmlns:svg="http://www.w3.org/2000/svg"
   xmlns="http://www.w3.org/2000/svg"
   xmlns:sodipodi="http://sodipodi.sourceforge.net/DTD/sodipodi-0.dtd"
   xmlns:inkscape="http://www.inkscape.org/namespaces/inkscape"
   version="1.1"
   id="Capa_1"
   x="0px"
   y="0px"
   viewBox="0 0 392.00101 347.51999"
   xml:space="preserve"
   sodipodi:docname="feature-icon-4.svg"
   width="392.00101"
   height="347.51999"
   inkscape:version="0.92.4 (unknown)"><metadata
   id="metadata196"><rdf:RDF><cc:Work
       rdf:about=""><dc:format>image/svg+xml</dc:format><dc:type
         rdf:resource="http://purl.org/dc/dcmitype/StillImage" /></cc:Work></rdf:RDF></metadata><defs
   id="defs194" /><sodipodi:namedview
   pagecolor="#ffffff"
   bordercolor="#666666"
   borderopacity="1"
   objecttolerance="10"
   gridtolerance="10"
   guidetolerance="10"
   inkscape:pageopacity="0"
   inkscape:pageshadow="2"
   inkscape:window-width="1920"
   inkscape:window-height="978"
   id="namedview192"
   showgrid="false"
   inkscape:zoom="2.0331633"
   inkscape:cx="196"
   inkscape:cy="173.76"
   inkscape:window-x="0"
   inkscape:window-y="27"
   inkscape:window-maximized="1"
   inkscape:current-layer="Capa_1" />
<g
   id="g159"
   transform="translate(0,-22.24)">
	<path
   d="M 366.318,22.24 H 25.681 C 11.521,22.24 0,33.76 0,47.921 v 187.576 c 0,14.161 11.521,25.681 25.681,25.681 h 135.23 V 286.5 H 50.133 c -2.762,0 -5,2.239 -5,5 v 73.26 c 0,2.761 2.238,5 5,5 h 151.87 c 2.762,0 5,-2.239 5,-5 0,-2.761 -2.238,-5 -5,-5 h -41.145 v -13.984 h 69.074 v 13.984 h -11.93 c -2.762,0 -5,2.239 -5,5 0,2.761 2.238,5 5,5 h 123.863 c 2.762,0 5,-2.239 5,-5 V 291.5 c 0,-2.761 -2.238,-5 -5,-5 H 231.089 v -25.322 h 62.641 c 2.762,0 5,-2.239 5,-5 0,-2.761 -2.238,-5 -5,-5 H 25.681 C 17.035,251.178 10,244.143 10,235.497 V 47.921 C 10,39.275 17.034,32.24 25.681,32.24 h 340.638 c 8.646,0 15.682,7.035 15.682,15.681 v 187.576 c 0,8.646 -7.035,15.681 -15.682,15.681 h -52.312 c -2.762,0 -5,2.239 -5,5 0,2.761 2.238,5 5,5 h 52.312 c 14.161,0 25.682,-11.52 25.682,-25.681 V 47.921 C 392,33.76 380.479,22.24 366.318,22.24 Z m -29.452,313.536 h -30.434 v -15.293 h 30.434 z m -109.508,0 v -15.293 h 16.357 v 15.293 z m -79.075,0 v -15.293 h 16.358 v 15.293 z m -93.15,-15.292 h 30.435 v 15.293 H 55.133 Z m 79.367,-10 V 296.5 h 16.358 v 13.984 z m -10,0 H 108.142 V 296.5 H 124.5 Z m -28.933,25.292 v -15.293 h 16.357 v 15.293 z m 2.575,-25.292 H 81.783 V 296.5 h 16.358 v 13.984 z m 0,35.292 V 359.76 H 81.783 v -13.984 z m 10,0 H 124.5 v 13.984 h -16.358 z m 13.783,-10 v -15.293 h 16.358 v 15.293 z m 52.717,-15.292 H 191 v 15.293 h -16.358 z m 26.358,0 h 16.358 v 15.293 H 201 Z m 52.716,0 h 16.358 v 15.293 h -16.358 z m 42.717,0 v 15.293 h -16.358 v -15.293 z m -13.785,25.292 v 13.984 h -16.357 v -13.984 z m 10,0 h 16.358 v 13.984 h -16.358 z m 0,-35.292 V 296.5 h 16.358 v 13.984 z m -10,0 H 266.291 V 296.5 h 16.357 z m -26.357,0 H 239.933 V 296.5 h 16.358 z M 229.933,296.5 v 13.984 H 213.575 V 296.5 Z m -26.359,13.984 H 187.216 V 296.5 h 16.358 z m -26.358,0 H 160.859 V 296.5 h 16.357 z M 71.783,296.5 v 13.984 H 55.133 V 296.5 Z m -16.65,49.276 h 16.65 v 13.984 h -16.65 z m 95.725,13.984 H 134.5 v -13.984 h 16.358 z m 89.075,-13.984 h 16.358 v 13.984 h -16.358 z m 79.074,13.984 v -13.984 h 17.859 v 13.984 z m 17.859,-49.276 H 319.007 V 296.5 h 17.859 z M 221.089,286.5 h -50.178 v -25.322 h 50.178 z"
   id="path153"
   inkscape:connector-curvature="0" />
	<path
   d="m 26.585,94.191 c -2.762,0 -5,2.239 -5,5 v 136.055 c 0,2.761 2.238,5 5,5 h 338.829 c 2.762,0 5,-2.239 5,-5 V 46.485 c 0,-2.761 -2.238,-5 -5,-5 H 26.585 c -2.762,0 -5,2.239 -5,5 v 30.467 c 0,2.761 2.238,5 5,5 2.762,0 5,-2.239 5,-5 V 51.485 H 242.077 L 137.401,156.161 c -1.953,1.953 -1.953,5.119 0,7.071 0.976,0.976 2.256,1.464 3.535,1.464 1.279,0 2.56,-0.488 3.535,-1.464 0,0 110.807,-111.071 111.049,-111.748 h 17.36 l -80.148,80.147 c -1.953,1.953 -1.953,5.119 0,7.071 0.976,0.976 2.256,1.464 3.535,1.464 1.279,0 2.56,-0.488 3.535,-1.464 0,0 86.279,-86.542 86.52,-87.219 h 74.091 V 230.245 H 108.259 l 76.499,-76.499 c 1.953,-1.953 1.953,-5.119 0,-7.071 -1.951,-1.952 -5.119,-1.952 -7.07,0 0,0 -83.029,83.16 -83.252,83.57 H 77.457 l 34.963,-34.962 c 1.953,-1.953 1.953,-5.119 0,-7.071 -1.951,-1.952 -5.119,-1.952 -7.07,0 0,0 -41.493,41.623 -41.716,42.034 H 31.585 V 99.191 c 0,-2.761 -2.238,-5 -5,-5 z"
   id="path155"
   inkscape:connector-curvature="0" />
	<path
   d="m 125.502,182.202 4.906,-4.906 c 1.953,-1.953 1.953,-5.118 0.001,-7.071 -1.953,-1.953 -5.12,-1.953 -7.071,-0.001 l -4.906,4.906 c -1.953,1.953 -1.953,5.118 -0.001,7.071 0.977,0.977 2.257,1.465 3.536,1.465 1.279,0 2.559,-0.488 3.535,-1.464 z"
   id="path157"
   inkscape:connector-curvature="0" />
</g>
<g
   id="g161"
   transform="translate(0,-22.24)">
</g>
<g
   id="g163"
   transform="translate(0,-22.24)">
</g>
<g
   id="g165"
   transform="translate(0,-22.24)">
</g>
<g
   id="g167"
   transform="translate(0,-22.24)">
</g>
<g
   id="g169"
   transform="translate(0,-22.24)">
</g>
<g
   id="g171"
   transform="translate(0,-22.24)">
</g>
<g
   id="g173"
   transform="translate(0,-22.24)">
</g>
<g
   id="g175"
   transform="translate(0,-22.24)">
</g>
<g
   id="g177"
   transform="translate(0,-22.24)">
</g>
<g
   id="g179"
   transform="translate(0,-22.24)">
</g>
<g
   id="g181"
   transform="translate(0,-22.24)">
</g>
<g
   id="g183"
   transform="translate(0,-22.24)">
</g>
<g
   id="g185"
   transform="translate(0,-22.24)">
</g>
<g
   id="g187"
   transform="translate(0,-22.24)">
</g>
<g
   id="g189"
   transform="translate(0,-22.24)">
</g>
</svg>