<?xml version="1.0" encoding="UTF-8" standalone="no"?>
<!-- Generator: Adobe Illustrator 19.0.0, SVG Export Plug-In . SVG Version: 6.00 Build 0)  -->

<svg
   xmlns:dc="http://purl.org/dc/elements/1.1/"
   xmlns:cc="http://creativecommons.org/ns#"
   xmlns:rdf="http://www.w3.org/1999/02/22-rdf-syntax-ns#"
   xmlns:svg="http://www.w3.org/2000/svg"
   xmlns="http://www.w3.org/2000/svg"
   xmlns:sodipodi="http://sodipodi.sourceforge.net/DTD/sodipodi-0.dtd"
   xmlns:inkscape="http://www.inkscape.org/namespaces/inkscape"
   version="1.1"
   id="Capa_1"
   x="0px"
   y="0px"
   viewBox="0 0 512.02604 184.47854"
   xml:space="preserve"
   sodipodi:docname="intro-icon-1.svg"
   width="512.02606"
   height="184.47855"
   inkscape:version="0.92.4 (unknown)"><metadata
   id="metadata307"><rdf:RDF><cc:Work
       rdf:about=""><dc:format>image/svg+xml</dc:format><dc:type
         rdf:resource="http://purl.org/dc/dcmitype/StillImage" /></cc:Work></rdf:RDF></metadata><defs
   id="defs305" /><sodipodi:namedview
   pagecolor="#ffffff"
   bordercolor="#666666"
   borderopacity="1"
   objecttolerance="10"
   gridtolerance="10"
   guidetolerance="10"
   inkscape:pageopacity="0"
   inkscape:pageshadow="2"
   inkscape:window-width="1920"
   inkscape:window-height="978"
   id="namedview303"
   showgrid="false"
   inkscape:zoom="1.5565645"
   inkscape:cx="256.01357"
   inkscape:cy="92.239033"
   inkscape:window-x="0"
   inkscape:window-y="27"
   inkscape:window-maximized="1"
   inkscape:current-layer="Capa_1" />
<g
   id="g254"
   transform="translate(0.00105989,-163.773)">
	<path
   class="green-part"
   d="m 360.025,299.781 c 0,2.8 0.32,5.44 1.04,8 3.52,13.84 16.08,24 30.96,24 14.88,0 27.44,-10.16 30.96,-24 0.72,-2.56 1.04,-5.2 1.04,-8 0,-17.68 -14.32,-32 -32,-32 -17.68,0 -32,14.32 -32,32 z"
   id="path248"
   inkscape:connector-curvature="0" />
	<path
   class="green-part"
   d="m 80.025,299.781 c 0,2.8 0.32,5.44 1.04,8 3.52,13.84 16.08,24 30.96,24 14.88,0 27.44,-10.16 30.96,-24 0.72,-2.56 1.04,-5.2 1.04,-8 0,-17.68 -14.32,-32 -32,-32 -17.68,0 -32,14.32 -32,32 z"
   id="path250"
   inkscape:connector-curvature="0" />
	<path
   class="green-part"
   d="m 216.025,225.861 128,9.92 24,-16 -40,-24 -12.56,-7.52 c -17.92,-10.8 -38.48,-16.48 -59.44,-16.48 h -56 -16.48 c -15.52,0 -30.88,3.2 -45.04,9.52 l -29.52,12.96 c -2.64,1.2 -5.36,2.24 -8.08,3.2 l 11.12,22.32 z"
   id="path252"
   inkscape:connector-curvature="0" />
</g>
<g
   id="g270"
   transform="translate(0.00105989,-163.773)">
	
		<rect
   x="0.018999999"
   y="332.022"
   transform="matrix(-1,0.0024,-0.0024,-1,192.8542,679.8127)"
   class="blue-part"
   width="192.00101"
   height="16"
   id="rect256" />
	<rect
   x="208.02499"
   y="331.78101"
   class="blue-part"
   width="32"
   height="16"
   id="rect258" />
	<rect
   x="256.02499"
   y="331.78101"
   class="blue-part"
   width="208"
   height="16"
   id="rect260" />
	<rect
   x="480.02499"
   y="331.78101"
   class="blue-part"
   width="32"
   height="16"
   id="rect262" />
	<path
   class="blue-part"
   d="m 64.153,315.781 h 11.376 c 6.24,14.392 20.496,24 36.624,24 16.176,0 30.464,-9.672 36.64,-24 h 59.36 16 92.184 17.224 21.96 c 6.24,14.392 20.488,24 36.624,24 16.176,0 30.464,-9.672 36.64,-24 h 35.36 c 13.232,0 24,-10.768 24,-24 0,-9.664 -2.368,-19.248 -6.864,-27.768 -0.624,-1.176 -1.352,-2.456 -2.096,-3.648 -5.88,-9.488 -14.208,-17.112 -24.104,-22.064 l -22.72,-11.36 c -19.152,-9.576 -40.504,-14.744 -61.896,-15.096 l -50.752,-30.44 c -19.136,-11.528 -41.112,-17.632 -63.568,-17.632 h -50.024 -16.688 -5.768 c -16.864,0 -33.112,3.44 -48.256,10.192 l -29.616,13 c -2.432,1.104 -4.928,2.056 -7.44,2.944 l -0.048,0.016 c -10.84,3.88 -22.344,5.848 -34.168,5.848 -6.488,0 -12.528,2.536 -16.864,6.992 -4.6,4.488 -7.136,10.52 -7.136,17.008 v 20.688 l -16,16 v 19.312 c 0.016,22.064 17.96,40.008 40.016,40.008 z m 272,-49.536 -13.416,33.536 h -98.584 v -65.28 l 112,8.68 z m 79.272,39.272 c -0.016,0.072 -0.024,0.136 -0.04,0.208 l -0.056,0.192 c -2.728,10.528 -12.24,17.872 -23.176,17.872 -10.968,0 -20.512,-7.392 -23.256,-18.168 -0.504,-1.776 -0.744,-3.68 -0.744,-5.832 0,-13.232 10.768,-24 24,-24 13.232,0 24,10.768 24,24 0,2.104 -0.248,3.976 -0.728,5.728 z m -44.88,-77.712 c 18.896,0.36 37.752,4.992 54.672,13.456 l 22.72,11.352 c 3.752,1.88 7.184,4.312 10.24,7.168 h -18.024 v 16 h 28.928 c 2,5.064 3.072,10.504 3.072,16 0,4.408 -3.584,8 -8,8 h -32 c 0,-22.056 -17.944,-40 -40,-40 -22.056,0 -40,17.944 -40,40 h -12.184 l 12.184,-30.464 v -29.256 l 10.872,-7.248 z M 256.153,179.781 c 19.544,0 38.672,5.304 55.328,15.344 l 41.72,25.008 -2.792,1.864 -8.392,5.592 -117.856,-9.136 v -0.144 l -1.92,-0.112 -11.368,-38.416 z m -48,53.624 v 66.376 h -56 c 0,-2.6 -0.288,-5.136 -0.768,-7.6 -0.16,-0.808 -0.432,-1.568 -0.64,-2.368 -0.416,-1.624 -0.872,-3.224 -1.48,-4.752 -0.352,-0.88 -0.784,-1.712 -1.2,-2.56 -0.656,-1.36 -1.344,-2.68 -2.144,-3.952 -0.528,-0.832 -1.088,-1.616 -1.672,-2.408 -0.872,-1.176 -1.792,-2.296 -2.784,-3.376 -0.664,-0.72 -1.328,-1.416 -2.04,-2.088 -1.088,-1.016 -2.24,-1.944 -3.44,-2.84 -0.752,-0.56 -1.48,-1.144 -2.272,-1.656 -1.36,-0.88 -2.8,-1.608 -4.272,-2.32 -0.736,-0.36 -1.432,-0.776 -2.192,-1.088 -2.136,-0.872 -4.36,-1.576 -6.664,-2.072 -0.144,-0.032 -0.272,-0.096 -0.416,-0.128 -0.008,0 -0.016,0 -0.024,-0.008 v -32.328 l 19.144,1.12 z m -95.824,-31.816 29.568,-12.984 c 13.12,-5.856 27.176,-8.824 41.776,-8.824 h 10.504 l 11.072,37.424 -56.704,-3.312 -31.296,-1.832 -1.232,-2.472 -3.936,-7.896 c 0.08,-0.032 0.168,-0.072 0.248,-0.104 z m -0.176,74.192 c 13.232,0 24,10.768 24,24 0,2.096 -0.248,3.952 -0.72,5.688 -0.024,0.096 -0.032,0.2 -0.064,0.304 l -0.024,0.088 c -2.712,10.56 -12.232,17.928 -23.192,17.928 -10.976,0 -20.512,-7.392 -23.256,-18.168 -0.504,-1.776 -0.744,-3.68 -0.744,-5.832 0,-13.24 10.768,-24.008 24,-24.008 z m -72,-12.688 11.312,-11.312 h 28.688 v -16 h -24 v -16 c 0,-2.136 0.816,-4.104 2.448,-5.696 1.448,-1.488 3.416,-2.304 5.552,-2.304 11.24,0 22.24,-1.544 32.784,-4.592 l 7.216,14.48 v 38.92 c -0.008,0 -0.016,0 -0.024,0.008 -0.144,0.032 -0.272,0.096 -0.416,0.128 -2.304,0.496 -4.528,1.2 -6.664,2.072 -0.76,0.312 -1.456,0.728 -2.192,1.088 -1.464,0.704 -2.904,1.44 -4.264,2.32 -0.792,0.512 -1.52,1.088 -2.272,1.656 -1.192,0.896 -2.352,1.816 -3.44,2.832 -0.712,0.664 -1.376,1.368 -2.04,2.088 -0.992,1.072 -1.912,2.192 -2.784,3.376 -0.584,0.784 -1.144,1.576 -1.672,2.408 -0.8,1.264 -1.488,2.592 -2.144,3.952 -0.416,0.848 -0.848,1.68 -1.2,2.56 -0.608,1.536 -1.056,3.128 -1.48,4.752 -0.208,0.792 -0.488,1.552 -0.64,2.368 -0.48,2.464 -0.768,5 -0.768,7.6 h -8 c -13.232,0 -24,-10.768 -24,-24 0,0 0,-12.704 0,-12.704 z"
   id="path264"
   inkscape:connector-curvature="0" />
	<rect
   x="384.185"
   y="291.78101"
   class="blue-part"
   width="16"
   height="16"
   id="rect266" />
	<rect
   x="104.185"
   y="291.78101"
   class="blue-part"
   width="16"
   height="16"
   id="rect268" />
</g>
<g
   id="g272"
   transform="translate(0.00105989,-163.773)">
</g>
<g
   id="g274"
   transform="translate(0.00105989,-163.773)">
</g>
<g
   id="g276"
   transform="translate(0.00105989,-163.773)">
</g>
<g
   id="g278"
   transform="translate(0.00105989,-163.773)">
</g>
<g
   id="g280"
   transform="translate(0.00105989,-163.773)">
</g>
<g
   id="g282"
   transform="translate(0.00105989,-163.773)">
</g>
<g
   id="g284"
   transform="translate(0.00105989,-163.773)">
</g>
<g
   id="g286"
   transform="translate(0.00105989,-163.773)">
</g>
<g
   id="g288"
   transform="translate(0.00105989,-163.773)">
</g>
<g
   id="g290"
   transform="translate(0.00105989,-163.773)">
</g>
<g
   id="g292"
   transform="translate(0.00105989,-163.773)">
</g>
<g
   id="g294"
   transform="translate(0.00105989,-163.773)">
</g>
<g
   id="g296"
   transform="translate(0.00105989,-163.773)">
</g>
<g
   id="g298"
   transform="translate(0.00105989,-163.773)">
</g>
<g
   id="g300"
   transform="translate(0.00105989,-163.773)">
</g>
</svg>