<?xml version="1.0" encoding="UTF-8" standalone="no"?>
<!-- Generator: Adobe Illustrator 19.0.0, SVG Export Plug-In . SVG Version: 6.00 Build 0)  -->

<svg
   xmlns:dc="http://purl.org/dc/elements/1.1/"
   xmlns:cc="http://creativecommons.org/ns#"
   xmlns:rdf="http://www.w3.org/1999/02/22-rdf-syntax-ns#"
   xmlns:svg="http://www.w3.org/2000/svg"
   xmlns="http://www.w3.org/2000/svg"
   xmlns:sodipodi="http://sodipodi.sourceforge.net/DTD/sodipodi-0.dtd"
   xmlns:inkscape="http://www.inkscape.org/namespaces/inkscape"
   version="1.1"
   id="Capa_1"
   x="0px"
   y="0px"
   viewBox="0 0 512.02022 296.03157"
   xml:space="preserve"
   sodipodi:docname="intro-icon-5.svg"
   width="512.0202"
   height="296.03156"
   inkscape:version="0.92.4 (unknown)"><metadata
   id="metadata454"><rdf:RDF><cc:Work
       rdf:about=""><dc:format>image/svg+xml</dc:format><dc:type
         rdf:resource="http://purl.org/dc/dcmitype/StillImage" /></cc:Work></rdf:RDF></metadata><defs
   id="defs452" /><sodipodi:namedview
   pagecolor="#ffffff"
   bordercolor="#666666"
   borderopacity="1"
   objecttolerance="10"
   gridtolerance="10"
   guidetolerance="10"
   inkscape:pageopacity="0"
   inkscape:pageshadow="2"
   inkscape:window-width="1920"
   inkscape:window-height="978"
   id="namedview450"
   showgrid="false"
   inkscape:zoom="0.46092041"
   inkscape:cx="256.01066"
   inkscape:cy="148.01527"
   inkscape:window-x="0"
   inkscape:window-y="27"
   inkscape:window-maximized="1"
   inkscape:current-layer="Capa_1" />
<g
   id="g405"
   transform="translate(0.00117341,-107.99321)">
	<circle
   class="green-part"
   cx="88.018997"
   cy="339.99399"
   r="48"
   id="circle395" />
	<circle
   class="green-part"
   cx="432.01901"
   cy="339.99399"
   r="48"
   id="circle397" />
	<path
   class="green-part"
   d="m 210.851,209.626 4.288,0.448 c 1.184,0.128 2.336,0 3.384,-0.352 2.112,-0.696 3.848,-2.256 4.776,-4.272 0.464,-1.008 0.72,-2.136 0.72,-3.328 v -15.904 c 0,-1.016 -0.192,-2 -0.544,-2.896 -0.704,-1.8 -2.04,-3.296 -3.752,-4.192 -0.856,-0.448 -1.808,-0.744 -2.824,-0.856 l -42.664,-4.744 -85.336,-9.488 c -1.776,-0.2 -3.376,0.344 -4.8,1.168 -2.368,1.384 -4.08,3.808 -4.08,6.784 v 24 l 128,13.336 z"
   id="path399"
   inkscape:connector-curvature="0" />
	<path
   class="green-part"
   d="m 102.419,345.914 h 0.008 l 33.352,-2.48 8,-0.64 24.24,-1.44 c 0,-13.04 -3.12,-27.76 -8.72,-38.64 l -22.88,8.16 -7.76,2.72 -30.48,13.12 c 3.6,2.96 5.84,7.36 5.84,12.32 v 0.008 c 0,2.48 -0.56,4.792 -1.6,6.872 z"
   id="path401"
   inkscape:connector-curvature="0" />
	<path
   class="green-part"
   d="m 336.019,163.994 40,-8 v -16 L 321.691,116.09 c -0.952,-0.408 -1.936,0.504 -1.608,1.48 z"
   id="path403"
   inkscape:connector-curvature="0" />
</g>
<g
   id="g417"
   transform="translate(0.00117341,-107.99321)">
	
		<rect
   x="0.023"
   y="387.74701"
   transform="matrix(-1,0.0029,-0.0029,-1,193.1937,791.2149)"
   class="blue-part"
   width="192.00101"
   height="16"
   id="rect407" />
	<rect
   x="208.019"
   y="387.49799"
   class="blue-part"
   width="32"
   height="16"
   id="rect409" />
	<rect
   x="256.01901"
   y="387.49799"
   class="blue-part"
   width="208"
   height="16"
   id="rect411" />
	<rect
   x="480.01901"
   y="387.49799"
   class="blue-part"
   width="32"
   height="16"
   id="rect413" />
	<path
   class="blue-part"
   d="m 432.147,283.994 c -12.56,0 -24.12,4.208 -33.472,11.216 l -11.44,-11.44 c 12.72,-10.2 28.384,-15.776 44.912,-15.776 h 9.984 l -2.176,-9.744 c -9.088,-40.768 -36.688,-74.624 -73.888,-92.088 l 18.08,-3.616 V 134.77 l -59.168,-26.032 c -3.328,-1.432 -7.192,-0.76 -9.848,1.68 -2.664,2.456 -3.648,6.248 -2.48,9.76 l 4.048,11.816 h -28.552 v 16 h 34.048 l 6.56,19.112 14.984,44.968 -24.968,79.92 h -54.624 c -26.472,0 -48,-21.96 -48,-48.96 v -24.912 c 3.92,0 7.728,-1.448 10.672,-4.08 3.392,-3.032 5.328,-7.376 5.328,-11.92 v -15.896 c 0,-8.168 -6.128,-15.016 -14.232,-15.904 L 89.907,156.098 c -4.472,-0.48 -9.048,0.96 -12.432,3.984 -3.392,3.024 -5.328,7.368 -5.328,11.912 v 19.04 l -48,24.016 v 52.944 h 64 c 24.312,0 46.328,11.472 59.44,30.448 l -15.824,5.624 c -10.496,-13.08 -26.648,-21.008 -43.616,-21.008 -30.872,0 -56,25.128 -56,56 0,30.872 25.128,56 56,56 26.288,0 49.032,-18.856 54.608,-44.032 l 49.392,-3.032 h 109.128 16.76 42.112 v -8 c 0,-16.528 5.576,-32.192 15.776,-44.912 l 11.44,11.44 c -7.008,9.352 -11.216,20.912 -11.216,33.472 0,30.872 25.128,56 56,56 30.872,0 56,-25.128 56,-56 0,-30.872 -25.128,-56 -56,-56 z m -344,-112 128,14.224 -0.056,15.84 -127.944,-13.296 c 0,0 0,-16.768 0,-16.768 z m 0,207.064 c -22.056,0 -40,-17.944 -40,-40 0,-22.056 17.944,-40 40,-40 10.448,0 20.472,4.2 27.84,11.336 l -16.944,7.296 c -0.24,-0.128 -0.512,-0.168 -0.752,-0.28 -1.192,-0.568 -2.424,-1.024 -3.688,-1.384 -0.464,-0.128 -0.912,-0.264 -1.384,-0.368 -1.648,-0.352 -3.328,-0.6 -5.064,-0.6 -13.232,0 -24,10.768 -24,24 0,13.232 10.768,24 24,24 1.688,0 3.336,-0.24 4.952,-0.584 0.312,-0.072 0.624,-0.128 0.936,-0.208 1.552,-0.4 3.056,-0.944 4.496,-1.64 0.232,-0.112 0.448,-0.248 0.672,-0.36 1.448,-0.76 2.832,-1.632 4.096,-2.664 0.032,-0.024 0.056,-0.04 0.088,-0.064 1.312,-1.08 2.472,-2.328 3.536,-3.664 0.08,-0.096 0.176,-0.168 0.256,-0.264 l 18.688,-1.392 c -5.544,15.624 -20.592,26.84 -37.728,26.84 z m 8,-40.016 c 0,1.168 -0.256,2.264 -0.744,3.256 -0.008,0.024 -0.016,0.048 -0.024,0.08 l -0.104,0.208 c -1.344,2.712 -4.112,4.472 -7.12,4.472 -4.416,0 -8,-3.584 -8,-8 0,-4.416 3.584,-8 8,-8 1.848,0 3.592,0.632 5.072,1.856 l 0.016,0.016 c 1.864,1.536 2.896,3.72 2.904,6.112 z m 47.12,-4.224 -31.184,2.368 c -0.08,-1.08 -0.264,-2.136 -0.488,-3.176 -0.016,-0.088 -0.024,-0.184 -0.04,-0.272 -0.272,-1.2 -0.632,-2.376 -1.088,-3.52 l 21.536,-9.264 23.104,-8.216 c 2.64,6.704 4.208,13.84 4.736,21.12 z m 163,-2.824 -114.576,0.016 -15.904,0.92 c -0.616,-8.792 -2.448,-17.432 -5.592,-25.568 v 0 l -3.632,-8.288 c -14.8,-29.032 -44.848,-47.08 -78.416,-47.08 h -48 v -8 h 120 v -16 h -120 v -3.056 l 41.448,-20.752 118.552,12.352 v 26.496 c 0,35.824 28.712,64.96 64,64.96 h 49.6 z m 35.176,-177.216 -8.624,-25.104 35.328,15.536 v 4.224 z m 28.488,123 c -14.728,14.736 -23.584,33.744 -25.424,54.216 h -21.488 l 37.528,-120.08 -11.888,-35.672 c 35.104,12.464 62.28,40.872 73.24,76.336 -19.608,2.264 -37.776,11.008 -51.968,25.2 z m 62.216,102.216 c -22.056,0 -40,-17.944 -40,-40 0,-8.136 2.472,-15.696 6.664,-22.024 l 27.68,27.68 11.312,-11.312 -27.68,-27.68 c 6.328,-4.192 13.888,-6.664 22.024,-6.664 22.056,0 40,17.944 40,40 0,22.056 -17.944,40 -40,40 z"
   id="path415"
   inkscape:connector-curvature="0" />
</g>
<g
   id="g419"
   transform="translate(0.00117341,-107.99321)">
</g>
<g
   id="g421"
   transform="translate(0.00117341,-107.99321)">
</g>
<g
   id="g423"
   transform="translate(0.00117341,-107.99321)">
</g>
<g
   id="g425"
   transform="translate(0.00117341,-107.99321)">
</g>
<g
   id="g427"
   transform="translate(0.00117341,-107.99321)">
</g>
<g
   id="g429"
   transform="translate(0.00117341,-107.99321)">
</g>
<g
   id="g431"
   transform="translate(0.00117341,-107.99321)">
</g>
<g
   id="g433"
   transform="translate(0.00117341,-107.99321)">
</g>
<g
   id="g435"
   transform="translate(0.00117341,-107.99321)">
</g>
<g
   id="g437"
   transform="translate(0.00117341,-107.99321)">
</g>
<g
   id="g439"
   transform="translate(0.00117341,-107.99321)">
</g>
<g
   id="g441"
   transform="translate(0.00117341,-107.99321)">
</g>
<g
   id="g443"
   transform="translate(0.00117341,-107.99321)">
</g>
<g
   id="g445"
   transform="translate(0.00117341,-107.99321)">
</g>
<g
   id="g447"
   transform="translate(0.00117341,-107.99321)">
</g>
</svg>