<?xml version="1.0" encoding="UTF-8" standalone="no"?>
<!-- Generator: Adobe Illustrator 19.0.0, SVG Export Plug-In . SVG Version: 6.00 Build 0)  -->

<svg
   xmlns:dc="http://purl.org/dc/elements/1.1/"
   xmlns:cc="http://creativecommons.org/ns#"
   xmlns:rdf="http://www.w3.org/1999/02/22-rdf-syntax-ns#"
   xmlns:svg="http://www.w3.org/2000/svg"
   xmlns="http://www.w3.org/2000/svg"
   xmlns:sodipodi="http://sodipodi.sourceforge.net/DTD/sodipodi-0.dtd"
   xmlns:inkscape="http://www.inkscape.org/namespaces/inkscape"
   version="1.1"
   id="Capa_1"
   x="0px"
   y="0px"
   viewBox="0 0 512.02604 216.47052"
   xml:space="preserve"
   sodipodi:docname="intro-icon-3.svg"
   width="512.02606"
   height="216.47054"
   inkscape:version="0.92.4 (unknown)"><metadata
   id="metadata427"><rdf:RDF><cc:Work
       rdf:about=""><dc:format>image/svg+xml</dc:format><dc:type
         rdf:resource="http://purl.org/dc/dcmitype/StillImage" /></cc:Work></rdf:RDF></metadata><defs
   id="defs425" /><sodipodi:namedview
   pagecolor="#ffffff"
   bordercolor="#666666"
   borderopacity="1"
   objecttolerance="10"
   gridtolerance="10"
   guidetolerance="10"
   inkscape:pageopacity="0"
   inkscape:pageshadow="2"
   inkscape:window-width="1920"
   inkscape:window-height="978"
   id="namedview423"
   showgrid="false"
   inkscape:zoom="0.46091497"
   inkscape:cx="256.01356"
   inkscape:cy="108.23503"
   inkscape:window-x="0"
   inkscape:window-y="27"
   inkscape:window-maximized="1"
   inkscape:current-layer="Capa_1" />
<g
   id="g374"
   transform="translate(0.00105029,-147.777)">
	<circle
   class="green-part"
   cx="128.02499"
   cy="315.77701"
   r="32"
   id="circle366" />
	<path
   class="green-part"
   d="m 424.025,315.777 c 0,17.68 -14.32,32 -32,32 -17.68,0 -32,-14.32 -32,-32 0,-9.6 4.24,-18.16 10.88,-24 1.92,-1.76 4.08,-3.2 6.4,-4.4 4.4,-2.32 9.44,-3.6 14.72,-3.6 17.68,0 32,14.32 32,32 z"
   id="path368"
   inkscape:connector-curvature="0" />
	<polygon
   class="green-part"
   points="376.025,155.297 336.025,155.297 336.025,219.297 376.025,219.297 432.025,219.297 408.025,155.297 "
   id="polygon370" />
	<path
   class="green-part"
   d="m 160.025,219.297 h 64 64 v -64 h -64 -64 -64 -60.72 l -3.28,56 c 0,1.6 0,8 0,8 h 64 z"
   id="path372"
   inkscape:connector-curvature="0" />
</g>
<g
   id="g390"
   transform="translate(0.00105029,-147.777)">
	
		<rect
   x="0.018999999"
   y="348.01801"
   transform="matrix(-1,0.0024,-0.0024,-1,192.8926,711.8047)"
   class="blue-part"
   width="192.00101"
   height="16"
   id="rect376" />
	<rect
   x="208.02499"
   y="347.77701"
   class="blue-part"
   width="32"
   height="16"
   id="rect378" />
	<rect
   x="256.02499"
   y="347.77701"
   class="blue-part"
   width="208"
   height="16"
   id="rect380" />
	<rect
   x="480.02499"
   y="347.77701"
   class="blue-part"
   width="32"
   height="16"
   id="rect382" />
	<rect
   x="120.185"
   y="307.77701"
   class="blue-part"
   width="16"
   height="16"
   id="rect384" />
	<rect
   x="384.185"
   y="307.77701"
   class="blue-part"
   width="16"
   height="16"
   id="rect386" />
	<path
   class="blue-part"
   d="m 488.153,251.777 c 0,-19.472 -13.92,-36.04 -33.016,-39.384 -2.208,-0.408 -4.56,-0.616 -6.984,-0.616 h -10.456 l -24,-64 h -29.544 -16 -24 -16 -32 -16 -48 -16 -48 -16 -48 -16 -60.264 l -3.736,64 v 16 48 16 32 h 32 16 16.808 c 3.72,18.232 19.872,32 39.192,32 19.32,0 35.472,-13.768 39.192,-32 h 16.808 80 16 16 32 16 8.808 c 3.72,18.232 19.872,32 39.192,32 19.32,0 35.472,-13.768 39.192,-32 h 56.808 z m -320,-88 h 48 v 48 h -48 z m -64,0 h 48 v 48 h -48 c 0,0 0,-48 0,-48 z m -61.168,0 h 45.168 v 48 H 40.169 Z m 13.168,144 h -16 v -16 h 16 z m 72,32 c -13.232,0 -24,-10.768 -24,-24 0,-13.232 10.768,-24 24,-24 13.232,0 24,10.768 24,24 0,13.232 -10.768,24 -24,24 z m 120,-32 h -48 v -16 h 48 z m 32,0 h -16 v -32 h -80 v 32 h -16.808 c 0,-0.008 -0.008,-0.016 -0.008,-0.024 -0.032,-0.144 -0.096,-0.272 -0.128,-0.416 -0.496,-2.304 -1.2,-4.528 -2.072,-6.664 -0.312,-0.76 -0.728,-1.456 -1.088,-2.192 -0.712,-1.464 -1.44,-2.912 -2.32,-4.272 -0.512,-0.792 -1.088,-1.52 -1.656,-2.272 -0.896,-1.192 -1.816,-2.352 -2.84,-3.44 -0.672,-0.712 -1.368,-1.376 -2.088,-2.04 -1.072,-0.992 -2.192,-1.912 -3.376,-2.784 -0.784,-0.584 -1.576,-1.144 -2.408,-1.672 -1.272,-0.8 -2.592,-1.488 -3.952,-2.144 -0.848,-0.408 -1.68,-0.848 -2.56,-1.2 -1.536,-0.608 -3.136,-1.064 -4.76,-1.48 -0.792,-0.208 -1.552,-0.488 -2.368,-0.64 -2.464,-0.48 -5,-0.768 -7.6,-0.768 -2.6,0 -5.136,0.288 -7.6,0.768 -0.816,0.16 -1.568,0.432 -2.368,0.64 -1.624,0.416 -3.224,0.872 -4.76,1.48 -0.88,0.352 -1.712,0.784 -2.56,1.2 -1.36,0.656 -2.68,1.344 -3.952,2.144 -0.832,0.528 -1.616,1.088 -2.408,1.672 -1.176,0.872 -2.296,1.792 -3.376,2.784 -0.72,0.664 -1.416,1.328 -2.088,2.04 -1.016,1.088 -1.944,2.24 -2.84,3.44 -0.56,0.752 -1.144,1.48 -1.656,2.272 -0.88,1.36 -1.608,2.8 -2.32,4.272 -0.36,0.736 -0.776,1.432 -1.088,2.192 -0.88,2.136 -1.576,4.36 -2.072,6.664 -0.032,0.144 -0.096,0.272 -0.128,0.416 0,0.008 -0.008,0.016 -0.008,0.024 H 72.153 v -32 h -32 v -24 h 24 v -16 h -24 v -8 h 48 16 48 16 48 16 48 z m 0,-96 h -48 v -48 h 48 z m 48,0 v 16 80 h -32 v -80 -64 h 32 z m 56,-48 h 18.456 l 18,48 h -36.456 z m -40,0 h 24 v 48 h -24 z m 48,176 c -13.232,0 -24,-10.768 -24,-24 0,-6.864 2.976,-13.432 8.28,-18.096 1.304,-1.192 2.872,-2.272 4.736,-3.224 3.32,-1.752 7.12,-2.68 10.984,-2.68 13.232,0 24,10.768 24,24 0,13.232 -10.768,24 -24,24 z m 80,-32 h -40.808 c 0,-0.008 -0.008,-0.016 -0.008,-0.024 -0.032,-0.144 -0.096,-0.272 -0.128,-0.416 -0.496,-2.304 -1.2,-4.528 -2.072,-6.664 -0.312,-0.76 -0.728,-1.456 -1.088,-2.192 -0.712,-1.464 -1.44,-2.912 -2.32,-4.272 -0.512,-0.792 -1.088,-1.52 -1.656,-2.272 -0.896,-1.192 -1.816,-2.352 -2.84,-3.44 -0.672,-0.712 -1.368,-1.376 -2.088,-2.04 -1.072,-0.992 -2.192,-1.912 -3.376,-2.784 -0.784,-0.584 -1.576,-1.144 -2.408,-1.672 -1.272,-0.8 -2.592,-1.488 -3.952,-2.144 -0.848,-0.408 -1.68,-0.848 -2.56,-1.2 -1.536,-0.608 -3.136,-1.064 -4.76,-1.48 -0.792,-0.208 -1.552,-0.488 -2.368,-0.64 -2.464,-0.48 -5,-0.768 -7.6,-0.768 -6.456,0 -12.84,1.56 -18.384,4.496 -3.048,1.568 -5.792,3.456 -8.024,5.504 -1.472,1.296 -2.792,2.72 -4.04,4.192 -0.296,0.352 -0.592,0.704 -0.872,1.064 -1.184,1.496 -2.296,3.048 -3.248,4.688 -0.072,0.12 -0.128,0.256 -0.2,0.376 -0.88,1.552 -1.632,3.168 -2.296,4.816 -0.168,0.424 -0.336,0.84 -0.496,1.264 -0.64,1.768 -1.192,3.576 -1.576,5.424 -0.016,0.064 -0.04,0.12 -0.056,0.176 h -8.776 v -80 h 24 16 59.544 4.456 c 1.408,0 2.76,0.112 4.144,0.368 8.752,1.536 15.648,7.656 18.464,15.632 h -22.608 v 16 h 24 z"
   id="path388"
   inkscape:connector-curvature="0" />
</g>
<g
   id="g392"
   transform="translate(0.00105029,-147.777)">
</g>
<g
   id="g394"
   transform="translate(0.00105029,-147.777)">
</g>
<g
   id="g396"
   transform="translate(0.00105029,-147.777)">
</g>
<g
   id="g398"
   transform="translate(0.00105029,-147.777)">
</g>
<g
   id="g400"
   transform="translate(0.00105029,-147.777)">
</g>
<g
   id="g402"
   transform="translate(0.00105029,-147.777)">
</g>
<g
   id="g404"
   transform="translate(0.00105029,-147.777)">
</g>
<g
   id="g406"
   transform="translate(0.00105029,-147.777)">
</g>
<g
   id="g408"
   transform="translate(0.00105029,-147.777)">
</g>
<g
   id="g410"
   transform="translate(0.00105029,-147.777)">
</g>
<g
   id="g412"
   transform="translate(0.00105029,-147.777)">
</g>
<g
   id="g414"
   transform="translate(0.00105029,-147.777)">
</g>
<g
   id="g416"
   transform="translate(0.00105029,-147.777)">
</g>
<g
   id="g418"
   transform="translate(0.00105029,-147.777)">
</g>
<g
   id="g420"
   transform="translate(0.00105029,-147.777)">
</g>
</svg>