<?xml version="1.0" encoding="UTF-8" standalone="no"?>
<!-- Generator: Adobe Illustrator 19.0.0, SVG Export Plug-In . SVG Version: 6.00 Build 0)  -->

<svg
   xmlns:dc="http://purl.org/dc/elements/1.1/"
   xmlns:cc="http://creativecommons.org/ns#"
   xmlns:rdf="http://www.w3.org/1999/02/22-rdf-syntax-ns#"
   xmlns:svg="http://www.w3.org/2000/svg"
   xmlns="http://www.w3.org/2000/svg"
   xmlns:sodipodi="http://sodipodi.sourceforge.net/DTD/sodipodi-0.dtd"
   xmlns:inkscape="http://www.inkscape.org/namespaces/inkscape"
   version="1.1"
   id="Capa_1"
   x="0px"
   y="0px"
   viewBox="0 0 512.02604 299.57442"
   xml:space="preserve"
   sodipodi:docname="intro-icon-2.svg"
   width="512.02606"
   height="299.57443"
   inkscape:version="0.92.4 (unknown)"><metadata
   id="metadata393"><rdf:RDF><cc:Work
       rdf:about=""><dc:format>image/svg+xml</dc:format><dc:type
         rdf:resource="http://purl.org/dc/dcmitype/StillImage" /></cc:Work></rdf:RDF></metadata><defs
   id="defs391" /><sodipodi:namedview
   pagecolor="#ffffff"
   bordercolor="#666666"
   borderopacity="1"
   objecttolerance="10"
   gridtolerance="10"
   guidetolerance="10"
   inkscape:pageopacity="0"
   inkscape:pageshadow="2"
   inkscape:window-width="1920"
   inkscape:window-height="978"
   id="namedview389"
   showgrid="false"
   inkscape:zoom="0.46091497"
   inkscape:cx="256.01359"
   inkscape:cy="149.78693"
   inkscape:window-x="0"
   inkscape:window-y="27"
   inkscape:window-maximized="1"
   inkscape:current-layer="Capa_1" />
<g
   id="g340"
   transform="translate(0.0010751,-106.225)">
	<circle
   class="green-part"
   cx="112.025"
   cy="357.32901"
   r="32"
   id="circle332" />
	<path
   class="green-part"
   d="m 424.025,357.329 c 0,17.68 -14.32,32 -32,32 -17.68,0 -32,-14.32 -32,-32 0,-9.6 4.24,-18.16 10.88,-24 5.68,-4.96 13.04,-8 21.12,-8 17.68,0 32,14.32 32,32 z"
   id="path334"
   inkscape:connector-curvature="0" />
	<path
   class="green-part"
   d="m 456.025,157.329 h -88 v 80 h 112 v -56 c 0,-13.28 -10.72,-24 -24,-24 z"
   id="path336"
   inkscape:connector-curvature="0" />
	<path
   class="green-part"
   d="m 464.025,277.329 h -16 v 32 h 32 v -16 c 0,-8.8 -7.2,-16 -16,-16 z"
   id="path338"
   inkscape:connector-curvature="0" />
</g>
<g
   id="g356"
   transform="translate(0.0010751,-106.225)">
	
		<rect
   x="0.018999999"
   y="389.57001"
   transform="matrix(-1,0.0024,-0.0024,-1,192.9923,794.9086)"
   class="blue-part"
   width="192.00101"
   height="16"
   id="rect342" />
	<rect
   x="208.02499"
   y="389.32901"
   class="blue-part"
   width="32"
   height="16"
   id="rect344" />
	<rect
   x="256.02499"
   y="389.32901"
   class="blue-part"
   width="208"
   height="16"
   id="rect346" />
	<rect
   x="480.02499"
   y="389.32901"
   class="blue-part"
   width="32"
   height="16"
   id="rect348" />
	<rect
   x="104.185"
   y="349.32901"
   class="blue-part"
   width="16"
   height="16"
   id="rect350" />
	<rect
   x="384.185"
   y="349.32901"
   class="blue-part"
   width="16"
   height="16"
   id="rect352" />
	<path
   class="blue-part"
   d="m 488.153,317.329 v -24 -48 -16 -48 c 0,-17.648 -14.352,-32 -32,-32 h -80 v -21.768 l -64,-21.336 v 43.096 16 104 h -264 c -13.232,0 -24,10.768 -24,24 v 72 h 48.808 c 3.72,18.232 19.872,32 39.192,32 19.32,0 35.472,-13.768 39.192,-32 h 201.616 c 3.72,18.232 19.872,32 39.192,32 19.32,0 35.472,-13.768 39.192,-32 h 56.808 z m -160,-188.904 32,10.664 v 10.232 h -32 z m -216,252.904 c -13.232,0 -24,-10.768 -24,-24 0,-13.232 10.768,-24 24,-24 13.232,0 24,10.768 24,24 0,13.232 -10.768,24 -24,24 z m 243.248,-39.664 c -1.032,2.424 -1.848,4.936 -2.392,7.52 -0.008,0.048 -0.032,0.096 -0.048,0.144 H 151.345 c 0,-0.008 -0.008,-0.016 -0.008,-0.024 -0.032,-0.144 -0.096,-0.272 -0.128,-0.416 -0.496,-2.304 -1.2,-4.528 -2.072,-6.664 -0.312,-0.76 -0.728,-1.456 -1.088,-2.192 -0.712,-1.464 -1.44,-2.912 -2.32,-4.272 -0.512,-0.792 -1.088,-1.52 -1.656,-2.272 -0.896,-1.192 -1.816,-2.352 -2.84,-3.44 -0.672,-0.712 -1.368,-1.376 -2.088,-2.04 -1.072,-0.992 -2.192,-1.912 -3.376,-2.784 -0.784,-0.584 -1.576,-1.144 -2.408,-1.672 -1.272,-0.8 -2.592,-1.488 -3.952,-2.144 -0.848,-0.408 -1.68,-0.848 -2.56,-1.2 -1.536,-0.608 -3.136,-1.064 -4.76,-1.48 -0.792,-0.208 -1.552,-0.488 -2.368,-0.64 -2.464,-0.48 -5,-0.768 -7.6,-0.768 -2.6,0 -5.136,0.288 -7.6,0.768 -0.816,0.16 -1.568,0.432 -2.368,0.64 -1.624,0.416 -3.224,0.872 -4.76,1.48 -0.88,0.352 -1.712,0.784 -2.56,1.2 -1.36,0.656 -2.68,1.344 -3.952,2.144 -0.832,0.528 -1.616,1.088 -2.408,1.672 -1.176,0.872 -2.296,1.792 -3.376,2.784 -0.72,0.664 -1.416,1.328 -2.088,2.04 -1.016,1.088 -1.944,2.24 -2.84,3.44 -0.56,0.752 -1.144,1.48 -1.656,2.272 -0.88,1.36 -1.608,2.8 -2.32,4.272 -0.36,0.736 -0.776,1.432 -1.088,2.192 -0.88,2.136 -1.576,4.36 -2.072,6.664 -0.032,0.144 -0.096,0.272 -0.128,0.416 0,0.008 -0.008,0.016 -0.008,0.024 H 40.153 v -56 c 0,-4.408 3.592,-8 8,-8 h 264 v 56 h 43.352 c -0.04,0.104 -0.056,0.224 -0.104,0.336 z m 36.752,39.664 c -13.232,0 -24,-10.768 -24,-24 0,-1.72 0.184,-3.416 0.544,-5.072 1.08,-4.952 3.728,-9.496 7.608,-12.92 4.448,-3.872 10.072,-6.008 15.84,-6.008 13.232,0 24,10.768 24,24 0,13.232 -10.76,24 -23.992,24 z m 80,-32 h -40.808 c 0,-0.008 -0.008,-0.016 -0.008,-0.024 -0.032,-0.144 -0.096,-0.272 -0.128,-0.416 -0.496,-2.304 -1.2,-4.528 -2.072,-6.664 -0.312,-0.76 -0.728,-1.456 -1.088,-2.192 -0.712,-1.464 -1.44,-2.912 -2.32,-4.272 -0.512,-0.792 -1.088,-1.52 -1.656,-2.272 -0.896,-1.192 -1.816,-2.352 -2.84,-3.44 -0.672,-0.712 -1.368,-1.376 -2.088,-2.04 -1.072,-0.992 -2.192,-1.912 -3.376,-2.784 -0.784,-0.584 -1.576,-1.144 -2.408,-1.672 -1.272,-0.8 -2.592,-1.488 -3.952,-2.144 -0.848,-0.408 -1.68,-0.848 -2.56,-1.2 -1.536,-0.608 -3.136,-1.064 -4.76,-1.48 -0.792,-0.208 -1.552,-0.488 -2.368,-0.64 -2.464,-0.48 -5,-0.768 -7.6,-0.768 -2.296,0 -4.56,0.232 -6.8,0.624 -0.728,0.128 -1.424,0.36 -2.136,0.528 -1.496,0.344 -2.984,0.72 -4.432,1.24 -0.816,0.288 -1.592,0.672 -2.384,1.016 -1.304,0.56 -2.584,1.152 -3.824,1.848 -0.8,0.448 -1.552,0.96 -2.32,1.464 -0.672,0.44 -1.392,0.8 -2.04,1.28 h -40.032 v -40 h 112 v 32 h 32 z m 0,-48 h -16 v -16 h 8 c 4.408,0 8,3.592 8,8 z m 0,-30.632 c -0.672,-0.24 -1.392,-0.368 -2.096,-0.552 -0.472,-0.12 -0.92,-0.272 -1.408,-0.368 -1.464,-0.28 -2.96,-0.456 -4.504,-0.456 h -24 -112 v -104 h 32 v 80 h 112 z m 0,-41.368 h -96 v -64 h 80 c 8.824,0 16,7.176 16,16 z"
   id="path354"
   inkscape:connector-curvature="0" />
</g>
<g
   id="g358"
   transform="translate(0.0010751,-106.225)">
</g>
<g
   id="g360"
   transform="translate(0.0010751,-106.225)">
</g>
<g
   id="g362"
   transform="translate(0.0010751,-106.225)">
</g>
<g
   id="g364"
   transform="translate(0.0010751,-106.225)">
</g>
<g
   id="g366"
   transform="translate(0.0010751,-106.225)">
</g>
<g
   id="g368"
   transform="translate(0.0010751,-106.225)">
</g>
<g
   id="g370"
   transform="translate(0.0010751,-106.225)">
</g>
<g
   id="g372"
   transform="translate(0.0010751,-106.225)">
</g>
<g
   id="g374"
   transform="translate(0.0010751,-106.225)">
</g>
<g
   id="g376"
   transform="translate(0.0010751,-106.225)">
</g>
<g
   id="g378"
   transform="translate(0.0010751,-106.225)">
</g>
<g
   id="g380"
   transform="translate(0.0010751,-106.225)">
</g>
<g
   id="g382"
   transform="translate(0.0010751,-106.225)">
</g>
<g
   id="g384"
   transform="translate(0.0010751,-106.225)">
</g>
<g
   id="g386"
   transform="translate(0.0010751,-106.225)">
</g>
</svg>