<?xml version="1.0" encoding="iso-8859-1"?>
<!-- Generator: Adobe Illustrator 19.0.0, SVG Export Plug-In . SVG Version: 6.00 Build 0)  -->
<svg version="1.1" id="Layer_1" xmlns="http://www.w3.org/2000/svg" xmlns:xlink="http://www.w3.org/1999/xlink" x="0px" y="0px"
	 viewBox="0 0 512 512" style="enable-background:new 0 0 512 512;" xml:space="preserve">
<g>
	<g>
		<path d="M509.229,379.724l-102.521-95.221c11.62-22.916,18.214-48.794,18.214-76.199c0-93.244-75.858-169.101-169.101-169.101
			S86.719,115.061,86.719,208.305c0,27.495,6.638,53.453,18.33,76.425L2.771,379.724c-2.615,2.426-3.474,6.205-2.17,9.523
			c1.302,3.32,4.505,5.503,8.071,5.503h78.047v69.375c0,3.491,2.094,6.644,5.314,7.994c1.084,0.457,2.225,0.677,3.356,0.677
			c2.227,0,4.421-0.86,6.074-2.479l102.931-100.932c16.225,5.193,33.499,8.021,51.426,8.021c18.026,0,35.39-2.864,51.693-8.111
			l103.024,101.023c1.654,1.622,3.847,2.479,6.074,2.479c1.131,0,2.272-0.22,3.356-0.677c3.22-1.351,5.314-4.503,5.314-7.994V394.75
			h78.047c3.565,0,6.769-2.183,8.071-5.503C512.703,385.93,511.843,382.151,509.229,379.724z M104.062,443.476v-57.398
			c0-4.789-3.883-8.672-8.672-8.672H30.752l83.188-77.266c17.649,27.173,42.871,48.968,72.668,62.393L104.062,443.476z
			 M255.82,360.062c-83.679,0-151.758-68.079-151.758-151.758S172.142,56.547,255.82,56.547s151.758,68.079,151.758,151.758
			S339.499,360.062,255.82,360.062z M416.61,377.406c-4.789,0-8.672,3.883-8.672,8.672v57.398l-82.659-81.055
			c29.766-13.469,54.949-35.296,72.556-62.491l83.414,77.476H416.61z"/>
	</g>
</g>
<g>
</g>
<g>
</g>
<g>
</g>
<g>
</g>
<g>
</g>
<g>
</g>
<g>
</g>
<g>
</g>
<g>
</g>
<g>
</g>
<g>
</g>
<g>
</g>
<g>
</g>
<g>
</g>
<g>
</g>
</svg>
