<?xml version="1.0" encoding="iso-8859-1"?>
<!-- Generator: Adobe Illustrator 18.0.0, SVG Export Plug-In . SVG Version: 6.00 Build 0)  -->
<!DOCTYPE svg PUBLIC "-//W3C//DTD SVG 1.1//EN" "http://www.w3.org/Graphics/SVG/1.1/DTD/svg11.dtd">
<svg version="1.1" id="Capa_1" xmlns="http://www.w3.org/2000/svg" xmlns:xlink="http://www.w3.org/1999/xlink" x="0px" y="0px"
	 viewBox="0 0 285.898 285.898" style="enable-background:new 0 0 285.898 285.898;" xml:space="preserve">
<g>
	<path d="M280.898,5.256H48.144C21.597,5.256,0,26.853,0,53.4c0,1.852,0,178.592,0,178.592c0,26.826,22.144,48.65,48.97,48.65
		h150.12c2.761,0,5-2.239,5-5s-2.239-5-5-5H48.97c-21.312,0-38.65-17.338-38.65-38.65V83.132
		c8.823,11.2,22.493,18.411,37.824,18.411h227.752v50.615h-44.31c-17.239,0-31.265,14.025-31.265,31.265
		c0,17.239,14.025,31.264,31.265,31.264h44.31v55.955h-56.33c-2.761,0-5,2.239-5,5s2.239,5,5,5h61.33c2.761,0,5-2.239,5-5
		l0.002-265.387C285.898,7.495,283.66,5.256,280.898,5.256z M275.896,204.687h-44.31c-11.726,0-21.265-9.539-21.265-21.265
		c0-11.725,9.539-21.264,21.265-21.264h44.31V204.687z M275.898,91.544h-20.17V40.527c0-2.761-2.239-5-5-5h-45.406
		c-2.761,0-5,2.239-5,5c0,2.761,2.239,5,5,5h40.406v18.49H126.654c-2.761,0-5,2.239-5,5c0,2.761,2.239,5,5,5h119.074v17.527H48.144
		c-13.44,0-25.271-6.994-32.066-17.527h58.576c2.761,0,5-2.239,5-5c0-2.761-2.239-5-5-5H11.515C10.535,60.644,10,57.084,10,53.4
		c0-2.699,0.286-5.331,0.821-7.873h172.832c2.761,0,5-2.239,5-5c0-2.761-2.239-5-5-5H14.46
		c6.419-12.048,19.107-20.271,33.684-20.271h227.754V91.544z"/>
	<path d="M109.167,64.017H93.142c-2.761,0-5,2.239-5,5c0,2.761,2.239,5,5,5h16.026c2.761,0,5-2.239,5-5
		C114.167,66.256,111.929,64.017,109.167,64.017z"/>
	<path d="M217.654,183.256c0,6.588,4.221,12.34,10.502,14.313c0.498,0.156,1.003,0.231,1.499,0.231c2.126,0,4.098-1.368,4.769-3.504
		c0.827-2.635-0.638-5.441-3.272-6.268c-2.092-0.657-3.498-2.574-3.498-4.772c0-2.757,2.243-5,5-5c2.757,0,5,2.243,5,5
		c0,0.698-0.139,1.37-0.414,1.998c-1.106,2.53,0.048,5.478,2.578,6.584c2.527,1.105,5.478-0.048,6.584-2.578
		c0.831-1.899,1.252-3.919,1.252-6.004c0-8.271-6.729-15-15-15S217.654,174.985,217.654,183.256z"/>
</g>
<g>
</g>
<g>
</g>
<g>
</g>
<g>
</g>
<g>
</g>
<g>
</g>
<g>
</g>
<g>
</g>
<g>
</g>
<g>
</g>
<g>
</g>
<g>
</g>
<g>
</g>
<g>
</g>
<g>
</g>
</svg>
